<?xml version="1.0" encoding="utf-8"?>
<svg viewBox="0 0 512 512" xmlns="http://www.w3.org/2000/svg">
  <g transform="matrix(0.100418, 0, 0, -0.100271, -1.066489, 512.805786)" fill="#000000" stroke="none" style="">
    <path d="M2465 5113 c-44 -2 -125 -8 -180 -14 -1196 -130 -2140 -1079 -2266 -2277 -17 -167 -7 -525 20 -675 47 -267 117 -480 231 -712 409 -830 1231 -1375 2146 -1423 452 -24 870 61 1269 258 513 253 914 654 1165 1165 116 236 183 444 231 712 30 168 38 526 15 713 -42 339 -159 694 -324 976 -54 94 -109 118 -165 74 -52 -41 -47 -67 55 -270 95 -188 147 -324 192 -505 53 -211 61 -281 61 -575 0 -245 -3 -289 -24 -405 -68 -380 -214 -717 -441 -1020 -71 -95 -304 -345 -321 -345 -5 0 -13 19 -19 43 -97 391 -337 731 -670 954 -261 175 -556 263 -875 264 -82 0 -184 -5 -225 -11 -652 -99 -1171 -569 -1330 -1207 -6 -24 -14 -43 -19 -43 -15 0 -239 237 -309 328 -230 299 -385 654 -453 1037 -31 172 -38 521 -14 706 65 514 297 989 665 1360 224 226 450 382 729 504 306 135 601 195 951 195 542 0 944 -134 1439 -479 56 -40 94 -40 132 -2 22 22 29 39 29 67 0 47 -32 79 -192 184 -445 294 -958 439 -1503 423z m336 -3269 c433 -73 811 -350 1009 -738 67 -133 140 -364 140 -446 0 -26 -175 -137 -355 -226 -241 -118 -501 -194 -774 -225 -158 -18 -516 -7 -668 20 -147 26 -334 79 -458 128 -209 82 -525 266 -525 303 0 36 31 167 61 258 112 337 364 629 685 792 113 58 273 112 394 133 117 21 371 21 491 1z" style="fill-opacity: 0.5;"/>
    <path d="M4335 4265 c-19 -18 -25 -35 -25 -65 0 -56 34 -90 90 -90 56 0 90 34 90 90 0 56 -34 90 -90 90 -30 0 -47 -6 -65 -25z" style="fill-opacity: 0.5;"/>
    <path d="M2466 4048 c-371 -32 -702 -332 -781 -708 -19 -91 -19 -269 0 -360 73 -347 349 -622 698 -696 93 -19 262 -19 355 0 348 74 624 350 697 697 19 90 19 268 0 359 -63 299 -285 556 -571 659 -130 47 -249 62 -398 49z m264 -203 c36 -9 103 -34 150 -57 69 -34 102 -59 175 -133 146 -145 205 -287 205 -495 0 -130 -18 -210 -72 -320 -34 -69 -59 -102 -133 -175 -145 -146 -287 -205 -495 -205 -130 0 -210 18 -320 72 -69 34 -102 59 -175 133 -146 145 -205 287 -205 495 0 130 18 210 72 320 34 69 59 102 133 175 73 74 106 99 175 133 47 23 112 48 145 56 81 19 263 20 345 1z" style="fill-opacity: 0.5;"/>
  </g>
</svg>