<?xml version="1.0" encoding="utf-8"?>
<svg viewBox="0 0 512 512" xmlns="http://www.w3.org/2000/svg">
  <g transform="matrix(0.10001, 0, 0, -0.10001, -0.0256, 511.94455)" fill="#000000" stroke="none" style="">
    <path d="M351 4339 c-179 -35 -317 -184 -341 -369 -13 -100 -13 -2720 0 -2820 24 -188 162 -334 349 -370 74 -14 4328 -14 4402 0 187 36 324 181 349 370 13 100 13 2720 0 2820 -24 188 -162 334 -349 370 -67 12 -4345 12 -4410 -1z m4444 -172 c53 -24 113 -82 136 -132 18 -38 19 -85 19 -982 0 -519 -2 -943 -4 -943 -3 0 -265 156 -582 347 -318 191 -588 349 -601 351 -13 2 -35 -4 -50 -14 -15 -9 -264 -206 -553 -437 -289 -231 -530 -424 -537 -429 -8 -7 -114 69 -345 249 -383 298 -381 297 -411 291 -12 -3 -398 -251 -857 -551 l-835 -547 -3 1303 c-2 933 0 1313 8 1340 13 43 79 121 122 143 15 8 44 18 65 23 22 5 959 8 2213 8 2071 -2 2177 -3 2215 -20z m-438 -1890 l588 -353 3 -390 c2 -265 -1 -401 -8 -427 -15 -51 -83 -125 -140 -151 -43 -20 -63 -21 -481 -24 l-436 -3 -567 441 c-312 243 -566 446 -564 451 4 11 1000 809 1010 809 3 0 271 -159 595 -353z m-1610 -663 c474 -368 862 -672 862 -677 1 -4 -729 -6 -1621 -5 l-1623 3 -45 21 c-81 38 -158 143 -148 205 2 16 219 163 848 574 465 305 849 552 855 551 5 -1 398 -304 872 -672z" style="fill-opacity: 0.5;"/>
    <path d="M2400 3807 c-178 -64 -298 -203 -336 -390 -67 -327 240 -644 569 -589 224 38 395 212 428 435 35 236 -127 482 -360 551 -83 24 -221 21 -301 -7z m316 -170 c28 -14 73 -50 100 -80 156 -170 99 -446 -111 -544 -51 -23 -73 -28 -145 -28 -77 0 -92 3 -152 33 -281 138 -248 545 52 643 14 5 66 7 115 6 74 -3 99 -8 141 -30z" style="fill-opacity: 0.5;"/>
  </g>
</svg>